<svg xmlns="http://www.w3.org/2000/svg" width="226.674" height="228.385" viewBox="0 0 226.674 228.385"><defs><style>.a{fill:#2871a0;}</style></defs><path class="a" d="M116.392,3a50.752,50.752,0,1,0,50.752,50.752A50.752,50.752,0,0,0,116.392,3Zm0,126.881c-76.128,0-99.126,50.752-99.126,50.752l-11.1,19.032c-6.344,10.15-2.7,22.68,8.723,27.755l5.155,3.965h32.91c0-27.914,27.914-50.752,63.44-50.752s63.44,22.839,63.44,50.752h32.91l6.344-2.379c10.15-5.075,13.878-19.191,7.534-29.341l-11.1-19.032S192.521,129.881,116.392,129.881Zm0,69.784c-24.107,0-44.408,13.957-44.408,31.72H160.8C160.8,213.622,140.5,199.665,116.392,199.665Z" transform="translate(-3.068 -3)"/></svg>