<?xml version="1.0" standalone="no"?>
<!DOCTYPE svg PUBLIC "-//W3C//DTD SVG 1.1//EN" "http://www.w3.org/Graphics/SVG/1.1/DTD/svg11.dtd">
<svg xmlns="http://www.w3.org/2000/svg" width="200.5070037841797" height="56.69300079345703" viewBox="0 0 200.507 56.693"><defs><style>.a{fill:#333;}.b{fill:#42b758;}.c{fill:#f45656;}.d{fill:#7f7f7f;}.e{fill:#309def;}.f{fill:#ff9624;}</style></defs><g transform="translate(-425.928 -46.063)"><path class="a" d="M495.74,47.656h2.923v17.76h9.194v2.66H495.74Z"/><path class="a" d="M518.2,59.993v5.715c0,.459.156.687.468.687a3.215,3.215,0,0,0,1.505-.716V67.3a8.736,8.736,0,0,1-1.454.8,3.164,3.164,0,0,1-1.148.212q-1.71,0-2.017-1.344a5.788,5.788,0,0,1-3.61,1.315,3.186,3.186,0,0,1-2.339-.928,3.148,3.148,0,0,1-.935-2.332,3.279,3.279,0,0,1,.913-2.272,6.169,6.169,0,0,1,2.6-1.586l3.4-1.17v-.716a2.145,2.145,0,0,0-2.426-2.426,5.842,5.842,0,0,0-4.239,2.251V56.193a5.521,5.521,0,0,1,4.458-1.827,5.148,5.148,0,0,1,3.494,1.14,3.584,3.584,0,0,1,.789.972,3.516,3.516,0,0,1,.446,1.213A18.019,18.019,0,0,1,518.2,59.993Zm-2.617,5.423v-3.99l-1.783.687a6,6,0,0,0-1.922,1.089,1.968,1.968,0,0,0-.029,2.726,1.881,1.881,0,0,0,1.381.526A3.343,3.343,0,0,0,515.582,65.416Z"/><path class="a" d="M524.886,54.629v1.71a5.347,5.347,0,0,1,4.049-1.973,4.464,4.464,0,0,1,2.339.65,4.243,4.243,0,0,1,1.644,1.783,8.534,8.534,0,0,1,.563,3.589v7.688h-2.66V60.417a5.234,5.234,0,0,0-.629-2.945,2.4,2.4,0,0,0-2.1-.885,3.833,3.833,0,0,0-3.2,1.886v9.6h-2.718V54.629Z"/><path class="a" d="M545.869,47.656h2.675v20.42h-5.686a6.226,6.226,0,0,1-4.758-1.885,7.077,7.077,0,0,1-1.776-5.058,6.713,6.713,0,0,1,1.864-4.882,6.355,6.355,0,0,1,4.758-1.915,8.632,8.632,0,0,1,2.923.571Zm0,18.14V57.274a5.528,5.528,0,0,0-2.514-.628,4.056,4.056,0,0,0-3.164,1.3,5.03,5.03,0,0,0-1.177,3.508,4.593,4.593,0,0,0,1.023,3.2,3.16,3.16,0,0,0,1.3.906,8.771,8.771,0,0,0,2.47.234Z"/><path class="a" d="M551.2,67.112V64.247a12.139,12.139,0,0,0,2.3,1.279,5.37,5.37,0,0,0,1.98.489,2.479,2.479,0,0,0,1.433-.409,1.176,1.176,0,0,0,.6-.979,1.318,1.318,0,0,0-.387-.972,9.008,9.008,0,0,0-1.674-1.118,11.846,11.846,0,0,1-3.369-2.449,3.512,3.512,0,0,1-.8-2.214,3.109,3.109,0,0,1,1.206-2.529,4.768,4.768,0,0,1,3.106-.979,8.548,8.548,0,0,1,4.049,1.111v2.631a8.1,8.1,0,0,0-3.873-1.433,2.149,2.149,0,0,0-1.25.33,1.01,1.01,0,0,0-.475.87,1.25,1.25,0,0,0,.43.893,7.333,7.333,0,0,0,1.513,1.023l.95.541q3.363,1.9,3.363,4.208a3.348,3.348,0,0,1-1.294,2.711,5.078,5.078,0,0,1-3.325,1.059,8.085,8.085,0,0,1-2.134-.256A14.282,14.282,0,0,1,551.2,67.112Z"/><path class="a" d="M573.16,64.934v2.631a11.186,11.186,0,0,1-3.918.745,6.456,6.456,0,0,1-6.913-6.884,7.166,7.166,0,0,1,1.827-5.116,6.292,6.292,0,0,1,4.809-1.944,8.008,8.008,0,0,1,1.863.2,12.292,12.292,0,0,1,2.04.738v2.836a7.076,7.076,0,0,0-3.742-1.286,3.82,3.82,0,0,0-2.953,1.264,4.594,4.594,0,0,0-1.155,3.223,4.353,4.353,0,0,0,1.25,3.274,4.629,4.629,0,0,0,3.369,1.213A8.8,8.8,0,0,0,573.16,64.934Z"/><path class="a" d="M584.335,59.993v5.715c0,.459.155.687.468.687a3.214,3.214,0,0,0,1.505-.716V67.3a8.736,8.736,0,0,1-1.454.8,3.164,3.164,0,0,1-1.148.212q-1.71,0-2.017-1.344a5.791,5.791,0,0,1-3.61,1.315,3.184,3.184,0,0,1-2.339-.928,3.149,3.149,0,0,1-.936-2.332,3.28,3.28,0,0,1,.914-2.272,6.169,6.169,0,0,1,2.595-1.586l3.405-1.17v-.716a2.145,2.145,0,0,0-2.426-2.426,5.842,5.842,0,0,0-4.239,2.251V56.193a5.521,5.521,0,0,1,4.458-1.827,5.148,5.148,0,0,1,3.494,1.14,3.584,3.584,0,0,1,.789.972,3.514,3.514,0,0,1,.446,1.213A18.015,18.015,0,0,1,584.335,59.993Zm-2.617,5.423v-3.99l-1.783.687a6,6,0,0,0-1.922,1.089,1.968,1.968,0,0,0-.029,2.726,1.881,1.881,0,0,0,1.381.526A3.343,3.343,0,0,0,581.718,65.416Z"/><path class="a" d="M587.894,74.932v-20.3h4.658a8.06,8.06,0,0,1,5.569,1.783,6.341,6.341,0,0,1,1.993,4.984,6.86,6.86,0,0,1-1.876,4.97,6.352,6.352,0,0,1-4.779,1.944,8.378,8.378,0,0,1-2.846-.57v7.192Zm4.6-17.818h-1.881v8.273a5.55,5.55,0,0,0,2.567.628,3.953,3.953,0,0,0,3.056-1.3,4.774,4.774,0,0,0,1.189-3.348,4.7,4.7,0,0,0-.562-2.324,3.405,3.405,0,0,0-1.531-1.469A6.85,6.85,0,0,0,592.494,57.114Z"/><path class="a" d="M614.2,61.586h-9.457a4.389,4.389,0,0,0,1.293,3.07,4.269,4.269,0,0,0,3.077,1.14,8.009,8.009,0,0,0,4.853-1.637v2.6a8.869,8.869,0,0,1-2.434,1.169,10.167,10.167,0,0,1-2.828.351,6.349,6.349,0,0,1-3.6-.921,6.708,6.708,0,0,1-2.2-2.477,7.582,7.582,0,0,1-.825-3.6,7.15,7.15,0,0,1,1.739-4.992,5.81,5.81,0,0,1,4.517-1.922,5.319,5.319,0,0,1,4.268,1.871A7.473,7.473,0,0,1,614.2,61.25Zm-9.4-1.593h6.768a3.712,3.712,0,0,0-.95-2.455,3.051,3.051,0,0,0-2.28-.863,3.276,3.276,0,0,0-2.346.863A4.271,4.271,0,0,0,604.8,59.993Z"/><path class="a" d="M511.979,73.85h2.733V94.27h-2.938V78.381L505.5,86.275h-.54L498.6,78.381V94.27h-2.923V73.85h2.768l6.785,8.387Z"/><path class="a" d="M530.506,87.78h-9.457a4.391,4.391,0,0,0,1.293,3.07,4.267,4.267,0,0,0,3.077,1.14,8.009,8.009,0,0,0,4.853-1.637v2.6a8.91,8.91,0,0,1-2.434,1.169,10.171,10.171,0,0,1-2.828.351,6.347,6.347,0,0,1-3.6-.921,6.7,6.7,0,0,1-2.2-2.478,7.568,7.568,0,0,1-.826-3.6,7.155,7.155,0,0,1,1.74-4.992,5.808,5.808,0,0,1,4.516-1.922,5.324,5.324,0,0,1,4.269,1.871,7.478,7.478,0,0,1,1.593,5.014Zm-9.4-1.593h6.768a3.72,3.72,0,0,0-.95-2.456,3.055,3.055,0,0,0-2.281-.862,3.279,3.279,0,0,0-2.346.862A4.273,4.273,0,0,0,521.107,86.187Z"/><path class="a" d="M531.8,82.956l5-4.911v2.777h4.254v2.4H536.8V89.8q0,2.305,1.915,2.306a5.946,5.946,0,0,0,3.026-.95v2.485a6.72,6.72,0,0,1-3.348.862,4.437,4.437,0,0,1-3.04-1.067,3.01,3.01,0,0,1-.629-.724,3.857,3.857,0,0,1-.416-1.052,11.813,11.813,0,0,1-.168-2.478V83.22H531.8Z"/><path class="a" d="M546.8,80.822v3.085l.146-.234q1.931-3.114,3.859-3.114a4.76,4.76,0,0,1,3.143,1.52l-1.4,2.339a3.942,3.942,0,0,0-2.573-1.315,2.756,2.756,0,0,0-2.229,1.227,4.638,4.638,0,0,0-.943,2.909V94.27h-2.675V80.822Z"/><path class="a" d="M561.792,80.793a7.012,7.012,0,0,1,5.1,1.981,6.662,6.662,0,0,1,2.032,4.977,6.327,6.327,0,0,1-2.061,4.831,7.313,7.313,0,0,1-5.189,1.922,7.017,7.017,0,0,1-5.058-1.951,6.891,6.891,0,0,1,.022-9.794A7.156,7.156,0,0,1,561.792,80.793Zm-.146,2.4a4.2,4.2,0,0,0-3.142,1.257,4.394,4.394,0,0,0-1.228,3.2,4.2,4.2,0,0,0,1.257,3.15,4.446,4.446,0,0,0,3.23,1.22,4.371,4.371,0,0,0,3.209-1.235,4.575,4.575,0,0,0-.052-6.337A4.521,4.521,0,0,0,561.646,83.19Z"/><path class="a" d="M572,101.125v-20.3h4.658a8.06,8.06,0,0,1,5.569,1.784,6.341,6.341,0,0,1,1.993,4.984,6.862,6.862,0,0,1-1.876,4.97,6.353,6.353,0,0,1-4.779,1.944,8.378,8.378,0,0,1-2.846-.57v7.191Zm4.6-17.818h-1.881v8.274a5.55,5.55,0,0,0,2.567.628,3.951,3.951,0,0,0,3.056-1.3,4.77,4.77,0,0,0,1.188-3.347,4.7,4.7,0,0,0-.561-2.324,3.405,3.405,0,0,0-1.531-1.469A6.848,6.848,0,0,0,576.6,83.307Z"/><path class="a" d="M593.876,80.793a7.013,7.013,0,0,1,5.1,1.981,6.661,6.661,0,0,1,2.031,4.977,6.326,6.326,0,0,1-2.061,4.831,7.313,7.313,0,0,1-5.189,1.922,7.016,7.016,0,0,1-5.057-1.951,6.89,6.89,0,0,1,.022-9.794A7.156,7.156,0,0,1,593.876,80.793Zm-.146,2.4a4.2,4.2,0,0,0-3.143,1.257,4.4,4.4,0,0,0-1.227,3.2,4.194,4.194,0,0,0,1.257,3.15,4.445,4.445,0,0,0,3.23,1.22,4.367,4.367,0,0,0,3.208-1.235A4.574,4.574,0,0,0,597,84.447,4.521,4.521,0,0,0,593.73,83.19Z"/><path class="a" d="M604.32,73.85h2.66V94.27h-2.66Z"/><path class="a" d="M612.5,75.166a1.56,1.56,0,0,1,1.125.453,1.486,1.486,0,0,1,.468,1.111,1.517,1.517,0,0,1-.468,1.111,1.533,1.533,0,0,1-1.125.467,1.473,1.473,0,0,1-1.082-.475,1.522,1.522,0,0,1-.468-1.1,1.506,1.506,0,0,1,.468-1.089A1.473,1.473,0,0,1,612.5,75.166Zm-1.316,5.656h2.66V94.27h-2.66Z"/><path class="a" d="M617.328,93.305V90.44a12.088,12.088,0,0,0,2.3,1.279,5.363,5.363,0,0,0,1.981.49,2.475,2.475,0,0,0,1.432-.409,1.177,1.177,0,0,0,.6-.98,1.322,1.322,0,0,0-.388-.972,9.041,9.041,0,0,0-1.673-1.118,11.852,11.852,0,0,1-3.369-2.448,3.509,3.509,0,0,1-.8-2.215,3.109,3.109,0,0,1,1.206-2.528,4.769,4.769,0,0,1,3.106-.98,8.563,8.563,0,0,1,4.049,1.111V84.3a8.1,8.1,0,0,0-3.874-1.432,2.153,2.153,0,0,0-1.249.329,1.013,1.013,0,0,0-.475.871,1.249,1.249,0,0,0,.43.892,7.306,7.306,0,0,0,1.512,1.024l.95.54q3.363,1.9,3.364,4.209a3.352,3.352,0,0,1-1.294,2.711,5.078,5.078,0,0,1-3.325,1.059,8.127,8.127,0,0,1-2.134-.256A14.216,14.216,0,0,1,617.328,93.305Z"/><path class="b" d="M483.254,67.6H482.23c-3.909,0-5.9-2.277-7.66-4.286-1.684-1.925-3.139-3.588-6.119-3.588s-4.435,1.663-6.119,3.588c-1.758,2.009-3.751,4.286-7.66,4.286s-5.9-2.277-7.66-4.286c-1.685-1.925-3.139-3.588-6.12-3.588s-4.435,1.663-6.12,3.588c-1.758,2.009-3.75,4.286-7.66,4.286h-1.024V65.551h1.024c2.981,0,4.435-1.662,6.12-3.587,1.758-2.01,3.751-4.287,7.66-4.287s5.9,2.277,7.66,4.287c1.685,1.925,3.139,3.587,6.12,3.587s4.435-1.662,6.119-3.587c1.758-2.01,3.751-4.287,7.66-4.287s5.9,2.277,7.66,4.287c1.684,1.925,3.139,3.587,6.119,3.587h1.024Z"/><rect class="c" width="57.165" height="2.047" transform="translate(426.088 73.386)"/><path class="d" d="M447.585,101.181H446.01V47.638h-6.3V98.032h-1.575V46.063h9.449Z"/><rect class="d" width="1.575" height="51.987" transform="translate(453.884 50.769)"/><path class="d" d="M463.333,101.181h-1.575V46.063h9.449V98.031h-1.575V47.638h-6.3Z"/><path class="e" d="M469.4,92.95A72.5,72.5,0,0,1,454.475,91.2c-7.5-1.463-14.588-2.845-28.176-.34l-.371-2.014c13.97-2.574,21.58-1.091,28.939.344,7.5,1.463,14.588,2.844,28.177.34l.371,2.013A76.825,76.825,0,0,1,469.4,92.95Z"/><path class="f" d="M483.254,83.307h-9.921V81.26h9.921Zm-15.748,0h-9.921V81.26h9.921Zm-15.748,0h-9.922V81.26h9.922Zm-15.748,0h-9.922V81.26h9.922Z"/></g></svg>